<svg width="1024" height="1024" viewBox="0 0 1024 1024" fill="none" xmlns="http://www.w3.org/2000/svg">
<path d="M605.758 536.109L594.874 541.109V690.609C594.911 690.591 597.71 689.287 599.821 688.609C601.945 687.926 605.751 687.11 605.758 687.109V687.01C605.823 686.993 647.366 675.916 679.905 681.461C712.387 686.996 724.434 698.052 724.495 698.109C724.527 698.037 728.166 690.169 764.073 681.461C800.095 672.726 843.112 686.97 843.231 687.01V686.631C843.878 686.82 848.401 688.157 850.652 689.109C853.063 690.128 855.564 691.588 855.6 691.609V540.609L843.231 535.639V525.004C856.219 529.881 864.959 535.476 865 535.502V708.002C864.929 707.986 822.365 698.576 795.242 701.502C768.113 704.429 726.029 713.491 725.979 713.502C725.807 713.455 681.882 701.502 648.8 701.502C615.682 701.502 583.058 707.991 583 708.002V535.502C583.042 535.481 593.04 530.272 605.758 525V536.109ZM781 500.212C818.911 494.725 842.888 509.642 843 509.712V678.212C842.879 678.176 799.949 665.342 764 673.212C728.213 681.047 724.542 688.129 724.5 688.212C724.414 688.141 712.384 678.194 680 673.212C647.543 668.219 606.108 678.186 606 678.212V509.712C606.11 509.639 628.592 494.726 666 500.212C703.406 505.698 724.395 519.145 724.5 519.212C724.601 519.139 743.104 505.697 781 500.212ZM681.811 519.83C651.196 513.474 624.089 519.81 624 519.83V658.425C624.075 658.4 640.653 652.898 668.74 654.884C696.837 656.871 716.923 664.97 717 665.001V534.499C716.956 534.42 712.328 526.167 681.811 519.83ZM827 519.83C826.94 519.816 799.82 513.47 769.189 519.83C738.639 526.174 734.034 534.438 734 534.499V665C734.08 664.968 754.164 656.871 782.26 654.884C810.364 652.897 826.945 658.407 827 658.425V519.83Z" fill="white" style="fill:white;fill-opacity:1;"/>
</svg>
