<svg width="1024" height="1024" viewBox="0 0 1024 1024" fill="none" xmlns="http://www.w3.org/2000/svg">
<path d="M812 261C830.778 261 846 276.222 846 295V477C846 477 839.15 486.922 832.5 486.922C825.85 486.922 820 477 820 477V441H523V740H803C812.389 740 820 732.389 820 723V726.5C820 726.5 826.086 720.665 832 720C837.914 719.335 846 726.5 846 726.5V728C846 746.778 830.778 762 812 762H211C192.222 762 177 746.778 177 728V295C177 276.222 192.222 261 211 261H812ZM204 723C204 732.389 211.611 740 221 740H342V601H204V723ZM364 740H501V601H364V740ZM204 579H342V441H204V579ZM364 579H501V441H364V579ZM221 282C211.611 282 204 289.611 204 299V420H342V282H221ZM364 420H501V282H364V420ZM523 420H820V299C820 289.611 812.389 282 803 282H523V420Z" fill="white" style="fill:white;fill-opacity:1;"/>
</svg>
